<?xml version="1.0" encoding="utf-8"?>
<!-- Generator: Adobe Illustrator 16.0.0, SVG Export Plug-In . SVG Version: 6.00 Build 0)  -->
<!DOCTYPE svg PUBLIC "-//W3C//DTD SVG 1.1//EN" "http://www.w3.org/Graphics/SVG/1.1/DTD/svg11.dtd">
<svg version="1.1" id="Layer_1" xmlns="http://www.w3.org/2000/svg" xmlns:xlink="http://www.w3.org/1999/xlink" x="0px" y="0px"
	 width="218.539px" height="180.02px" viewBox="69.663 151.463 218.539 180.02"
	 enable-background="new 69.663 151.463 218.539 180.02" xml:space="preserve">
<g>
	<path fill="#FFE2B7" d="M237.403,283.758c-13.67,17.464-34.347,28.626-57.022,28.626l-2.472,1.101l-0.401,15.974l2.873,2.024
		c28.658,0,54.185-13.393,70.67-34.259L237.403,283.758"/>
	<path fill="#FCC97B" d="M109.717,297.224c16.484,20.866,42.011,34.259,70.664,34.259v-19.099
		c-22.674,0-42.859-10.642-55.841-27.202l-3.908-0.335l-9.763,10.004L109.717,297.224"/>
	<path fill="#B8DDF4" d="M180.381,170.56c-23.156,0-43.721,11.101-56.664,28.271l-13.709-13.642
		c16.432-20.547,42.423-33.726,70.373-33.726l5.676,2.854l-2.098,14.038L180.381,170.56"/>
	<path fill="#19B1E6" d="M154.246,244.564l0.069-6.573c0.021-2.191,1.125-3.275,3.318-3.254l15.245,0.174l0.169-16.924
		c0.023-2.192,1.129-3.276,3.323-3.253l6.573,0.065c2.19,0.023,3.271,1.132,3.252,3.318l-0.172,16.93l14.423,0.164
		c2.191,0.022,3.275,1.132,3.252,3.323l-0.065,6.573c-0.022,2.193-1.128,3.275-3.318,3.253l-14.425-0.168l-0.171,16.763
		c-0.018,2.194-1.128,3.275-3.317,3.257l-6.572-0.07c-2.194-0.021-3.277-1.125-3.255-3.318l0.167-16.763l-15.243-0.173
		C155.309,247.864,154.223,246.758,154.246,244.564"/>
	<path fill="#19B1E6" d="M276.215,241.067l-0.008,0.007h-5.825c-0.092-21.497-7.715-41.216-20.373-56.646l-9.175-1.31l-6.613,5.808
		l2.393,9.341c8.796,11.74,14.575,27.02,14.67,42.808h-9.757l-0.004-0.007h-11.499l29.117,28.999l29.062-28.999H276.215z"/>
	<path fill="#8BCAEF" d="M236.613,198.267c-12.94-17.17-33.072-27.707-56.232-27.707v-19.097c27.951,0,53.121,12.974,69.628,32.965
		L236.613,198.267"/>
	<path fill="#F9AB1B" d="M111.16,244.807h19.023l-30.286-30.171l-30.234,30.171h20.784c0.74,19.868,8.049,38.864,20.492,53.931
		l13.601-13.556c-8.767-11.216-14.273-25.203-14.984-40.375H111.16z"/>
</g>
</svg>
