<?xml version="1.0" encoding="utf-8"?>
<!-- Generator: Adobe Illustrator 16.0.0, SVG Export Plug-In . SVG Version: 6.00 Build 0)  -->
<!DOCTYPE svg PUBLIC "-//W3C//DTD SVG 1.1//EN" "http://www.w3.org/Graphics/SVG/1.1/DTD/svg11.dtd">
<svg version="1.1" id="Layer_1" xmlns="http://www.w3.org/2000/svg" xmlns:xlink="http://www.w3.org/1999/xlink" x="0px" y="0px"
	 width="37.034px" height="30.597px" viewBox="0 0 37.034 30.597" enable-background="new 0 0 37.034 30.597" xml:space="preserve">
<g>
	<path d="M0,1.923v3.374l0.054,0.089c4.137-3.348,9.742-4.789,15.303-3.401c5.563,1.387,9.767,5.119,11.849,10.018
		c1.408,3.347,1.882,7.362,0.959,11.16l-2.343-0.585l-0.002-0.002l-2.761-0.688l5.258,8.709l8.717-5.052l-4.281-1.066
		c1.266-5.169,0.615-10.448-1.501-14.913C29.395,5.682,26.409,2.309,22.62,0H1.923C0.861,0,0,0.861,0,1.923z"/>
	<path d="M15.966,18.516l-3.511-0.92l1.073-4.121c0.139-0.533-0.059-0.87-0.592-1.008l-1.601-0.417
		c-0.534-0.138-0.87,0.059-1.009,0.593l-1.07,4.121l-3.712-0.971c-0.534-0.138-0.87,0.059-1.008,0.594l-0.417,1.6
		c-0.14,0.534,0.058,0.87,0.591,1.008l3.71,0.971L7.36,24.047c-0.14,0.535,0.058,0.869,0.592,1.008l1.601,0.417
		c0.533,0.14,0.87-0.059,1.007-0.593l1.063-4.082l3.511,0.92c0.533,0.14,0.868-0.057,1.008-0.592l0.416-1.601
		C16.698,18.99,16.501,18.654,15.966,18.516z"/>
</g>
</svg>
